<svg width="63" height="99" xmlns="http://www.w3.org/2000/svg" xmlns:xlink="http://www.w3.org/1999/xlink" xml:space="preserve" overflow="hidden"><g transform="translate(-1239 -818)"><path d="M30.7742 26.462C28.2804 24.2904 24.8679 24.15 23.1486 26.147 21.4292 28.1439 22.0546 31.5236 24.5464 33.6938 27.0382 35.8641 30.4526 36.0058 32.172 34.0088 33.8914 32.0119 33.2653 28.6328 30.7742 26.462Z" transform="matrix(1 0 0 1.57143 1239 818)"/><path d="M35.2144 16.6031C34.2633 15.8312 32.8668 15.9757 32.0939 16.926 31.4594 17.9774 31.7858 19.3434 32.8269 19.9946 33.778 20.7665 35.1745 20.622 35.9474 19.6717 36.5819 18.6203 36.2555 17.2543 35.2144 16.6031Z" transform="matrix(1 0 0 1.57143 1239 818)"/><path d="M24.6284 40.6383C23.7253 39.8106 22.3223 39.8714 21.4942 40.7741 20.7994 41.7865 21.0444 43.1689 22.0448 43.8808 22.9479 44.7085 24.3509 44.6477 25.179 43.745 25.8745 42.7328 25.6294 41.3498 24.6284 40.6383Z" transform="matrix(1 0 0 1.57143 1239 818)"/><path d="M55.1782 39.0849C50.3941 34.8265 50.3101 32.256 46.9061 31.2047 44.0646 30.3273 41.4258 31.7474 38.7581 33.7739 39.2527 32.6903 39.8138 31.6383 40.4381 30.6239 44.3369 24.2622 52.372 18.2707 52.372 18.2707L31.7395 3.28125C25.4706 7.37927 20.588 13.2778 17.7332 20.202 17.6899 20.307 17.6505 20.4048 17.6085 20.5072 17.5823 18.6585 17.1767 17.0369 15.9567 15.8478 13.8744 13.8134 12.0848 14.8903 7.25944 13.2622 5.33137 12.6118 3.26222 11.636 2.37562 9.75516 1.32562 11.6583 0.841312 14.8509 1.92216 16.6182 2.97872 18.3809 5.99091 19.0673 5.99091 19.0673 5.99091 19.0673 4.18753 20.0517 4.7775 21.9325 5.12597 23.0442 6.63337 24.3823 9.43688 24.3692 8.48991 25.1626 8.16572 26.1128 8.9775 26.7868 10.3156 27.8946 13.3232 27.2862 13.3232 27.2862 13.6573 28.0148 14.1758 28.6436 14.8273 29.1106 14.0392 32.4785 12.6839 35.6878 10.8196 38.6013 9.81087 40.2464 8.45407 41.6506 6.84469 42.7153L25.6508 59.5002C25.6508 59.5002 31.1994 57.4809 34.0548 49.35 34.9903 46.6314 35.7828 43.8657 36.4291 41.0642 36.6701 40.9874 36.9062 40.8965 37.1365 40.7918 37.1365 40.7918 38.955 44.4872 40.4736 45.1959 41.6548 45.7472 42.4253 44.7687 42.6037 43.2764 44.4058 46.5353 46.4835 47.5552 48.2186 47.3668 50.5365 47.1148 50.1775 43.8802 50.1775 43.8802 50.1775 43.8802 52.8314 46.7316 55.2917 46.8333 57.7717 46.9606 60.4662 44.5896 61.6901 42.3353 59.2233 42.485 57.0892 40.7866 55.1782 39.0849ZM30.3397 48.0434C29.8484 49.4761 29.1692 50.8372 28.3198 52.0912L24.3127 53.0283 14.9933 44.7103 14.5169 40.0831C16.4889 36.8802 17.9168 33.3727 18.7425 29.7032 19.3976 26.9724 20.2756 24.3 21.3675 21.7127 23.0815 17.6278 25.5756 13.9163 28.7103 10.7861L33.9957 9.78928 42.8748 16.2402 43.2029 21.0853C40.8821 23.3366 38.8272 25.8467 37.0788 28.5666 34.3468 33.0245 33.514 36.4147 32.5507 40.3403 31.9487 42.9449 31.2107 45.5161 30.3397 48.0434Z" transform="matrix(1 0 0 1.57143 1239 818)"/></g></svg>