<svg width="96" height="96" xmlns="http://www.w3.org/2000/svg" xmlns:xlink="http://www.w3.org/1999/xlink" xml:space="preserve" overflow="hidden"><g transform="translate(-1353 -298)"><path d="M1436 347C1435.5 347 1435.1 346.7 1434.8 346.4 1434.3 345.9 1434 345 1434 344.1 1434 342.8 1434.9 341.8 1435.7 341.2L1435.8 341.1C1437.7 342.1 1438 343.1 1438 344 1438 345.6 1437.1 347 1436 347ZM1408.8 327.3C1408.5 328 1407.7 328.5 1407 328.5 1406.7 328.5 1406.4 328.4 1406.2 328.3 1403 326.8 1399.5 326 1396.2 326 1394.3 326 1392.4 326.3 1390.5 326.8 1389.4 327.1 1388.3 326.5 1388 325.4 1387.7 324.3 1388.3 323.2 1389.4 322.9 1391.6 322.3 1393.9 322 1396.1 322 1399.9 322 1404 322.9 1407.7 324.6 1408.8 325.1 1409.3 326.3 1408.8 327.3ZM1443.3 335C1440.8 334.6 1437.7 335.3 1435.2 336.7 1432.9 336.2 1429.4 336.2 1426.2 337.3 1421.5 326.1 1408.4 318 1396 318 1391.7 318 1387.4 319 1383.5 320.8L1371.2 315C1370.4 314.6 1369.5 315.4 1369.8 316.2L1373.8 327.5C1371.4 330 1369.4 332.9 1368 336.1 1367.8 336.7 1367.3 337.1 1366.6 337.3L1363 338.2C1361.2 338.6 1360 340.2 1360 342.1L1360 349.9C1360 351.7 1361.2 353.3 1363 353.8L1366.7 354.7C1367.3 354.9 1367.8 355.3 1368.1 355.9 1369.8 359.8 1372.4 363.3 1375.6 366.2 1375.9 366.5 1376.2 366.9 1376.3 367.4L1377.8 376.5C1378 377.5 1378.8 378.2 1379.8 378.2L1386.4 378.2C1387.4 378.2 1388.2 377.5 1388.4 376.5L1388.9 373.3C1391.2 373.9 1393.6 374.2 1396.1 374.2 1398.8 374.2 1401.6 373.8 1404.2 373.1L1404.8 376.5C1405 377.5 1405.8 378.2 1406.8 378.2L1413.4 378.2C1414.4 378.2 1415.2 377.5 1415.4 376.5L1416.9 367.4C1417 366.9 1417.2 366.5 1417.6 366.2 1423.7 360.9 1428 353.9 1428 346 1428 344.3 1427.8 342.7 1427.4 341.1 1428.6 340.7 1429.9 340.4 1431.1 340.4 1430.4 341.5 1430 342.7 1430 344 1429.9 346 1430.7 347.9 1432 349.3 1433.1 350.4 1434.5 351.1 1436 351.1 1439.3 351.1 1442 348 1442 344.1 1442 342.2 1441.3 340.5 1439.9 339.2 1440.9 339 1441.8 338.9 1442.7 339 1443.8 339.2 1444.8 338.4 1445 337.3 1445.1 336.2 1444.4 335.2 1443.3 335Z"/></g></svg>