<svg width="64" height="97" xmlns="http://www.w3.org/2000/svg" xmlns:xlink="http://www.w3.org/1999/xlink" xml:space="preserve" overflow="hidden"><g transform="translate(-210 -295)"><path d="M32 48C33.1333 48 34 48.8667 34 50 34 51.1333 33.1333 52 32 52 30.8667 52 30 51.1333 30 50 30 48.8667 30.8667 48 32 48ZM5.33333 54.6667 58.6667 54.6667 58.6667 45.3333 5.33333 45.3333 5.33333 54.6667Z" transform="matrix(1 0 0 1.51562 210 295)"/><path d="M18.6667 22.6667 25.3333 22.6667 25.3333 25.3333 18.6667 25.3333Z" transform="matrix(1 0 0 1.51562 210 295)"/><path d="M18.6667 17.3333 25.3333 17.3333 25.3333 20 18.6667 20Z" transform="matrix(1 0 0 1.51562 210 295)"/><path d="M18.6667 12 25.3333 12 25.3333 14.6667 18.6667 14.6667Z" transform="matrix(1 0 0 1.51562 210 295)"/><path d="M50.6667 28 34.6667 28 34.6667 21.3333 50.6667 21.3333 50.6667 28ZM28 28 16 28 16 9.33333 28 9.33333 28 28ZM54.6667 28 54.6667 20C54.6667 18.5333 53.4667 17.3333 52 17.3333L30.6667 17.3333 30.6667 8C30.6667 7.26667 30.0667 6.66667 29.3333 6.66667L14.6667 6.66667C13.9333 6.66667 13.3333 7.26667 13.3333 8L13.3333 17.3333 12 17.3333C10.5333 17.3333 9.33333 18.5333 9.33333 20L9.33333 28 5.33333 37.3333 5.33333 42.6667 58.6667 42.6667 58.6667 37.3333 54.6667 28Z" transform="matrix(1 0 0 1.51562 210 295)"/></g></svg>